<svg xmlns="http://www.w3.org/2000/svg" viewBox="0 0 64 64" fill="none">
  <!-- BlackSnow: geometric crystal / snowflake mark -->
  <!-- Central vertical line -->
  <line x1="32" y1="4" x2="32" y2="60" stroke="white" stroke-width="2.5" stroke-linecap="round"/>
  <!-- 60° diagonal lines through center -->
  <line x1="7.72" y1="46" x2="56.28" y2="18" stroke="white" stroke-width="2.5" stroke-linecap="round"/>
  <line x1="7.72" y1="18" x2="56.28" y2="46" stroke="white" stroke-width="2.5" stroke-linecap="round"/>
  <!-- Short branches on vertical axis -->
  <line x1="32" y1="12" x2="24" y2="16.62" stroke="white" stroke-width="2" stroke-linecap="round"/>
  <line x1="32" y1="12" x2="40" y2="16.62" stroke="white" stroke-width="2" stroke-linecap="round"/>
  <line x1="32" y1="52" x2="24" y2="47.38" stroke="white" stroke-width="2" stroke-linecap="round"/>
  <line x1="32" y1="52" x2="40" y2="47.38" stroke="white" stroke-width="2" stroke-linecap="round"/>
  <!-- Short branches on top-right to bottom-left axis -->
  <line x1="48.14" y1="22.7" x2="48.14" y2="13.46" stroke="white" stroke-width="2" stroke-linecap="round"/>
  <line x1="48.14" y1="22.7" x2="56.14" y2="27.32" stroke="white" stroke-width="2" stroke-linecap="round"/>
  <line x1="15.86" y1="41.3" x2="15.86" y2="50.54" stroke="white" stroke-width="2" stroke-linecap="round"/>
  <line x1="15.86" y1="41.3" x2="7.86" y2="36.68" stroke="white" stroke-width="2" stroke-linecap="round"/>
  <!-- Short branches on top-left to bottom-right axis -->
  <line x1="15.86" y1="22.7" x2="15.86" y2="13.46" stroke="white" stroke-width="2" stroke-linecap="round"/>
  <line x1="15.86" y1="22.7" x2="7.86" y2="27.32" stroke="white" stroke-width="2" stroke-linecap="round"/>
  <line x1="48.14" y1="41.3" x2="48.14" y2="50.54" stroke="white" stroke-width="2" stroke-linecap="round"/>
  <line x1="48.14" y1="41.3" x2="56.14" y2="36.68" stroke="white" stroke-width="2" stroke-linecap="round"/>
  <!-- Center diamond accent -->
  <rect x="28" y="28" width="8" height="8" rx="1" transform="rotate(45 32 32)" fill="white" opacity="0.9"/>
</svg>
